<svg xmlns="http://www.w3.org/2000/svg" viewBox="0 0 32 32" width="32" height="32">
  <defs>
    <linearGradient id="grad1" x1="0%" y1="0%" x2="100%" y2="100%">
      <stop offset="0%" style="stop-color:#667eea;stop-opacity:1" />
      <stop offset="100%" style="stop-color:#8B5CF6;stop-opacity:1" />
    </linearGradient>
  </defs>
  
  <!-- Background with gradient matching website -->
  <rect width="32" height="32" fill="url(#grad1)" rx="8"/>
  
  <!-- Brain icon matching the website logo -->
  <path d="M8 10c0-1.1 0.9-2 2-2s2 0.9 2 2-0.9 2-2 2-2-0.9-2-2z" fill="#ffffff"/>
  <path d="M20 10c0-1.1 0.9-2 2-2s2 0.9 2 2-0.9 2-2 2-2-0.9-2-2z" fill="#ffffff"/>
  <path d="M6 14c0-1.1 0.9-2 2-2s2 0.9 2 2-0.9 2-2 2-2-0.9-2-2z" fill="#ffffff"/>
  <path d="M22 14c0-1.1 0.9-2 2-2s2 0.9 2 2-0.9 2-2 2-2-0.9-2-2z" fill="#ffffff"/>
  <path d="M10 18c0-1.1 0.9-2 2-2s2 0.9 2 2-0.9 2-2 2-2-0.9-2-2z" fill="#ffffff"/>
  <path d="M18 18c0-1.1 0.9-2 2-2s2 0.9 2 2-0.9 2-2 2-2-0.9-2-2z" fill="#ffffff"/>
  
  <!-- Brain curves -->
  <path d="M10 12c0 0 2 1 6 1s6-1 6-1" stroke="#ffffff" stroke-width="1.5" fill="none"/>
  <path d="M8 16c0 0 2 1 8 1s8-1 8-1" stroke="#ffffff" stroke-width="1.5" fill="none"/>
  <path d="M10 20c0 0 2 1 6 1s6-1 6-1" stroke="#ffffff" stroke-width="1.5" fill="none"/>
</svg> 